<svg xmlns="http://www.w3.org/2000/svg" viewBox="0 0 96 96" id="affiliate"><path fill="#e1e7f8" d="M48,93.33A45.33,45.33,0,1,1,93.33,48,45.37,45.37,0,0,1,48,93.33ZM48,4.67A43.33,43.33,0,1,0,91.33,48,43.38,43.38,0,0,0,48,4.67Z"></path><path fill="#e1e7f8" d="M32.54 15.1a1 1 0 01-.41-1.91 38.26 38.26 0 0131.74 0A1 1 0 0163 15 36.3 36.3 0 0033 15 1.06 1.06 0 0132.54 15.1zM14.09 64.44a1 1 0 01-.91-.58 38.35 38.35 0 010-31.73 1 1 0 011.32-.49A1 1 0 0115 33 36.35 36.35 0 0015 63 1 1 0 0114.09 64.44zM32.14 82.82A1 1 0 1133 81a36.28 36.28 0 0030.09 0 1 1 0 01.83 1.82A38.32 38.32 0 0132.14 82.82zM81.91 64.44A1 1 0 0181 63a36.34 36.34 0 000-30.1 1 1 0 011.82-.83 38.31 38.31 0 010 31.76A1 1 0 0181.91 64.44zM95 52.13a1 1 0 01-.76-.36l-2-2.36-2.36 2a1 1 0 01-1.29-1.53l3.13-2.64a1 1 0 011.41.13l2.63 3.12A1 1 0 0195 52.13zM50.63 7.79a1 1 0 01-.77-.35L47.23 4.31a1 1 0 01.13-1.41L50.48.27A1 1 0 1151.77 1.8l-2.36 2 2 2.36A1 1 0 0150.63 7.79zM3.67 49a1 1 0 01-.77-.36L.27 45.52a1 1 0 01.12-1.41 1 1 0 011.41.12l2 2.36 2.36-2a1 1 0 011.29 1.53C4.05 49 4.16 49 3.67 49zM44.88 96a1 1 0 01-.65-1.76l2.36-2-2-2.36a1 1 0 011.54-1.29l2.63 3.13a1 1 0 01-.13 1.41C45.26 96 45.36 96 44.88 96z"></path><path fill="#ff7d3f" d="M50.08,17.23,75,42.11a2.48,2.48,0,0,1-1,4.13c-6.82,2-11.38,3.21-18,6.87-7.23,4-6.92,4.2-15.9,13.18a4.17,4.17,0,0,1-5.91,0L25.9,58a4.21,4.21,0,0,1,0-5.93c6.62-6.62,9.24-8.81,12-13.71,4.8-8.61,5.26-10.62,8.08-20.12A2.48,2.48,0,0,1,50.08,17.23Z"></path><path fill="#ffba4e" d="M50.08,17.23,69.2,36.36a2.48,2.48,0,0,1-1,4.13c-6.81,2-11.37,3.21-17.94,6.87l-.3.17a2.82,2.82,0,0,1-3.36-.47l-7.71-7.7a1.83,1.83,0,0,1-.3-2.18c4.12-7.38,5-10.82,7.4-18.9A2.48,2.48,0,0,1,50.08,17.23Z"></path><path fill="#ffdd67" d="M43.73 34.27c-.92 1.91-1.77 3.47-2.46 4.7a1.32 1.32 0 00.22 1.58l.93.93a1.37 1.37 0 002 .13L48 38a1 1 0 000-1.44L45.37 34A1 1 0 0043.73 34.27zM45.67 31.1l4.06 4.07a.8.8 0 001.13 0l1-1a.8.8 0 000-1.13l-4.49-4.5a.81.81 0 00-1.32.28c-.18.48-.36.95-.54 1.4A.78.78 0 0045.67 31.1z"></path><path fill="#fff" d="M45.09,33.7l.46.46a.75.75,0,0,1,.15.84c-1.07,2.31-2.09,4.15-2.88,5.56a.74.74,0,0,1-1.17.16l-.48-.48a.73.73,0,0,1-.12-.89c.77-1.36,1.77-3.16,2.85-5.44A.74.74,0,0,1,45.09,33.7Z"></path><path fill="#64a6ee" d="M34.13,43.75,48.44,58.06c-1.24,1-1.33,1.19-8.37,8.23a4.17,4.17,0,0,1-5.91,0L25.9,58a4.21,4.21,0,0,1,0-5.93C33.43,44.58,33.13,44.92,34.13,43.75Z"></path><path fill="#87ceff" d="M26.07,51.94l-.17.17a4.17,4.17,0,0,0-1.19,2.45l4.21,4.21a2.51,2.51,0,0,0,2.14.72,1.14,1.14,0,0,0,.61-1.94Z"></path><rect width="2.81" height="2.21" x="25.74" y="53.9" fill="#fff" rx=".67" transform="rotate(-45 27.153 55.003)"></rect><path fill="#64a6ee" d="M33,58.29l1.88-1.88L33,58.3Z"></path><path fill="#4b79df" d="M42.91,52.53l5.53,5.53c-1.24,1-1.33,1.19-8.37,8.23a4.17,4.17,0,0,1-5.91,0l-5.54-5.53a4.19,4.19,0,0,0,5.92,0C42.08,53.22,41.73,53.53,42.91,52.53Z"></path><path fill="#ffba4e" d="M58.92,47.73c-.35.35-1.71.63-5.77,2.89-1.85,1-2.7,1.48-3.68,2.11a.81.81,0,0,1-1.12-.26.8.8,0,0,1,.25-1.11A80,80,0,0,1,58,46.42.81.81,0,0,1,58.92,47.73Z"></path><rect width="4.65" height="23.88" x="40.6" y="37.32" fill="#352d5b" rx="1.9" transform="rotate(-45 42.924 49.26)"></rect><rect width="4.65" height="19.5" x="39.05" y="37.97" fill="#3f416a" rx="1.9" transform="rotate(-45 41.373 47.713)"></rect><rect width="2.03" height="7.23" x="37.81" y="41.54" fill="#536997" rx=".83" transform="rotate(-45 38.825 45.158)"></rect><rect width="2.03" height="3.09" x="37.7" y="43.51" fill="#6291c9" rx=".83" transform="rotate(-45 38.712 45.055)"></rect><rect width="5.29" height="20.05" x="33.39" y="46.13" fill="#8c97e4" transform="rotate(-45 36.039 56.152)"></rect><rect width="5.29" height="12.32" x="30.66" y="47.26" fill="#e1e7f8" transform="rotate(-45 33.297 53.418)"></rect><rect width="5.29" height="1.62" x="37.6" y="59.55" fill="#ff7d3f" transform="rotate(-45 40.246 60.37)"></rect><rect width="5.29" height="1.62" x="34.8" y="56.75" fill="#ff7d3f" transform="rotate(-45 37.439 57.552)"></rect><rect width="5.29" height="1.62" x="31.99" y="53.94" fill="#ffba4e" transform="rotate(-45 34.639 54.752)"></rect><rect width="5.29" height="1.62" x="29.18" y="51.14" fill="#ffba4e" transform="rotate(-45 31.827 51.947)"></rect><path fill="#ffdd67" d="M45,21.49l3.67,3.68a.79.79,0,0,1,0,1.14.8.8,0,0,1-1.14,0l-3.06-3.06Z"></path><path fill="#ff7d3f" d="M62.87,40.51a.83.83,0,0,1-1.15,0L50.82,29.6A.81.81,0,1,1,52,28.45L62.87,39.36A.83.83,0,0,1,62.87,40.51Z"></path><path fill="#ff4b26" d="M66.93,43.42l3.77,3.77-1.76.53-3.16-3.15a.81.81,0,0,1,1.15-1.15Z"></path><path fill="#ff7d3f" d="M25.9,58l8.26,8.25L29.82,68a1.51,1.51,0,0,1-1.64-.34L24.52,64a1.51,1.51,0,0,1-.34-1.64Z"></path><path fill="#ffba4e" d="M25.28,59.6l-1.1,2.77A1.51,1.51,0,0,0,24.52,64l.79.79a1.51,1.51,0,0,0,1.64.34l.94-.38a1.28,1.28,0,0,0,.44-2.11Z"></path><rect width="4.65" height="4.58" x="42.22" y="48.59" fill="#4e5fb6" transform="rotate(-45 44.545 50.879)"></rect><rect width="4.65" height="2.44" x="41.47" y="48.91" fill="#6782cf" transform="rotate(-45 43.794 50.13)"></rect><path fill="#ff2353" d="M67.53,31.13l-1.22,2.33-7.58-7.58,2.34-1.22A2,2,0,0,1,63.5,25l3.66,3.66A2.06,2.06,0,0,1,67.53,31.13Z"></path><path fill="#3f416a" d="M40.81,62.11H49.5a0,0,0,0,1,0,0V65A1.46,1.46,0,0,1,48,66.47H42.27A1.46,1.46,0,0,1,40.81,65v-2.9a0,0,0,0,1,0,0Z" transform="rotate(-45 45.158 64.285)"></path><rect width="8.69" height="1.96" x="39.96" y="62.46" fill="#3a3256" transform="rotate(-45 44.307 63.438)"></rect><path fill="#4e5fb6" d="M60,68.93a2.67,2.67,0,0,1-2,4.57,20.08,20.08,0,0,1-13.12-5.83l3.75-3.78a14.72,14.72,0,0,0,9.64,4.29A2.64,2.64,0,0,1,60,68.93Z"></path><path fill="#e1e7f8" d="M60,68.93a2.67,2.67,0,0,1-2,4.57,20.08,20.08,0,0,1-13.12-5.83l3.75-3.78a14.72,14.72,0,0,0,9.64,4.29A2.64,2.64,0,0,1,60,68.93Z"></path><path fill="#c8cef8" d="M58.81,70.48a2.52,2.52,0,0,1-1.52.4A20,20,0,0,1,45.93,66.6c.9-.9,1.81-1.8,2.7-2.71a14.72,14.72,0,0,0,9.64,4.29A1.25,1.25,0,0,1,58.81,70.48Z"></path><rect width="3.34" height="10.71" x="58.51" y="26.65" fill="#ffd36c" rx="1.37" transform="rotate(-45 60.185 32)"></rect><path fill="#87ceff" d="M34.8,44.14h2a0,0,0,0,1,0,0v8.75a.66.66,0,0,1-.66.66h-.72a.66.66,0,0,1-.66-.66V44.14a0,0,0,0,1,0,0Z" transform="rotate(-45 35.825 48.85)"></path><path fill="#fff" d="M34.47,46.41H35a.76.76,0,0,1,.76.76v1.29a.66.66,0,0,1-.66.66h-.72a.66.66,0,0,1-.66-.66V47.17a.76.76,0,0,1,.76-.76Z" transform="rotate(-45 34.734 47.763)"></path><path fill="#46a6fd" d="M80.89,69.45a11.43,11.43,0,0,0-6.6,20.76c0-3.25-.1-4.1.26-5.35a7.5,7.5,0,0,1,5.6-11.43,3.09,3.09,0,0,1,1.48,0,7.49,7.49,0,0,1,5.61,11.44c.37,1.29.26,2.08.26,5.34a11.43,11.43,0,0,0-6.61-20.76Z"></path><path fill="#64cefd" d="M85.57,82a6.83,6.83,0,0,1,1.67,2.84,7.5,7.5,0,0,0-5.61-11.44,3.38,3.38,0,1,1-1.48,0,7.49,7.49,0,0,0-5.6,11.42A6.62,6.62,0,0,1,85.57,82Z"></path><path fill="#493c88" d="M81.63,73.43a3.09,3.09,0,0,0-1.48,0A7.32,7.32,0,0,1,81.63,73.43Z"></path><path fill="#493c88" d="M77.51,76.72a3.38,3.38,0,1,0,4.12-3.29,7.32,7.32,0,0,0-1.48,0A3.38,3.38,0,0,0,77.51,76.72Z"></path><path fill="#352d5b" d="M87.24 84.87a7.49 7.49 0 01-12.69 0c-.37 1.3-.26 2.06-.26 5.35a11.4 11.4 0 0013.21 0C87.5 86.6 87.58 86.06 87.24 84.87zM86.48 83.18c-.08-.13-.17-.25-.26-.37C86.31 82.93 86.4 83.05 86.48 83.18zM80.8 80.1a6.11 6.11 0 00-.86.08A6.11 6.11 0 0180.8 80.1zM76 82.23a6.54 6.54 0 00-.53.65A6.54 6.54 0 0176 82.23zM79.68 80.21a8.15 8.15 0 00-.85.22A8.15 8.15 0 0179.68 80.21zM75.44 83a7.6 7.6 0 00-.46.78A7.6 7.6 0 0175.44 83zM78.6 80.52a5.78 5.78 0 00-.72.31A5.78 5.78 0 0178.6 80.52zM86 82.57a5.08 5.08 0 00-.38-.43A5.08 5.08 0 0186 82.57zM77.75 80.89a7.34 7.34 0 00-.75.48Q77.36 81.12 77.75 80.89zM76.16 82.1c.21-.21.43-.41.65-.59C76.59 81.69 76.37 81.89 76.16 82.1zM74.89 84a8.71 8.71 0 00-.32.85A7.83 7.83 0 0174.89 84zM87.23 84.84A6.49 6.49 0 0087 84.1 6.49 6.49 0 0187.23 84.84zM86.88 83.93a4.44 4.44 0 00-.24-.49A4.44 4.44 0 0186.88 83.93z"></path><path fill="#493c88" d="M87 84.1l-.09-.17zM86.64 83.44l-.16-.26zM87.24 84.87h0v0zM86.22 82.81c-.06-.08-.11-.16-.18-.24A2.15 2.15 0 0186.22 82.81zM76 82.23l.12-.13zM75.51 82.88a.86.86 0 00-.07.1A.86.86 0 0175.51 82.88zM79.94 80.18l-.26 0zM80.8 80.1a6.53 6.53 0 014.86 2A6.51 6.51 0 0080.8 80.1zM74.55 84.85h0s0 0 0-.06S74.55 84.83 74.55 84.85zM75 83.76l-.09.19zM77 81.37l-.19.14zM78.83 80.43l-.23.09zM77.88 80.83l-.13.06z"></path><path fill="#493c88" d="M87.24,84.87c-1.83-6.41-10.89-6.25-12.69,0A7.5,7.5,0,0,0,87.24,84.87Z"></path><path fill="#46a6fd" d="M74.29,24.45c0-3.25-.1-4.11.26-5.35a7.5,7.5,0,0,1,5.6-11.44,3.36,3.36,0,0,1,1.48,0,7.5,7.5,0,0,1,5.61,11.45c.37,1.29.26,2.07.26,5.34a11.44,11.44,0,1,0-13.21,0Z"></path><path fill="#64cefd" d="M85.57,16.26a6.85,6.85,0,0,1,1.67,2.84A7.5,7.5,0,0,0,81.63,7.66a3.38,3.38,0,1,1-1.48,0,7.5,7.5,0,0,0-5.6,11.43A6.62,6.62,0,0,1,85.57,16.26Z"></path><path fill="#493c88" d="M81.63,7.66a3.22,3.22,0,0,0-1.48,0A7.32,7.32,0,0,1,81.63,7.66Z"></path><path fill="#493c88" d="M77.51,11a3.38,3.38,0,1,0,4.12-3.29,7.32,7.32,0,0,0-1.48,0A3.38,3.38,0,0,0,77.51,11Z"></path><path fill="#352d5b" d="M87.24 19.11a7.5 7.5 0 01-12.69 0c-.37 1.29-.26 2.06-.26 5.35a11.42 11.42 0 0013.21 0C87.5 20.84 87.58 20.29 87.24 19.11zM75.44 17.21A7.75 7.75 0 0075 18 7.75 7.75 0 0175.44 17.21zM79.68 14.45a8.11 8.11 0 00-.85.21A8.11 8.11 0 0179.68 14.45zM80.8 14.34a6.11 6.11 0 00-.86.07A6.11 6.11 0 0180.8 14.34zM78.6 14.75a5.83 5.83 0 00-.72.32A5.83 5.83 0 0178.6 14.75zM86 16.8a5.08 5.08 0 00-.38-.43A5.08 5.08 0 0186 16.8zM77.75 15.13a6 6 0 00-.75.48A6 6 0 0177.75 15.13zM76.16 16.33c.21-.21.43-.4.65-.58C76.59 15.93 76.37 16.12 76.16 16.33zM86.88 18.16q-.1-.24-.24-.48Q86.78 17.92 86.88 18.16zM87.23 19.08a6.49 6.49 0 00-.26-.74A5.88 5.88 0 0187.23 19.08zM74.89 18.19a7.12 7.12 0 00-.32.85A7.12 7.12 0 0174.89 18.19zM86.48 17.41L86.22 17zM76 16.47a5.56 5.56 0 00-.53.65A5.56 5.56 0 0176 16.47z"></path><path fill="#493c88" d="M75.51 17.12l-.07.09zM76 16.47l.12-.14zM75 18l-.09.19zM80.8 14.34a6.52 6.52 0 014.86 2A6.47 6.47 0 0080.8 14.34zM87.24 19.11h0v0zM87 18.34l-.09-.18zM86.64 17.68l-.16-.27zM74.55 19.09h0s0 0 0-.06A.08.08 0 0074.55 19.09zM77 15.61l-.19.14zM78.83 14.66l-.23.09zM77.88 15.07l-.13.06zM86.22 17c-.06-.08-.11-.16-.18-.24C86.11 16.88 86.16 17 86.22 17zM79.94 14.41l-.26 0z"></path><path fill="#493c88" d="M87.24,19.11c-1.82-6.41-10.88-6.26-12.69,0A7.5,7.5,0,0,0,87.24,19.11Z"></path><path fill="#46a6fd" d="M15.09,69.45a11.43,11.43,0,0,0-6.6,20.76c0-3.25-.1-4.1.26-5.35a7.5,7.5,0,0,1,5.6-11.43,3.13,3.13,0,0,1,1.49,0,7.51,7.51,0,0,1,5.6,11.44c.37,1.29.26,2.08.26,5.34a11.43,11.43,0,0,0-6.61-20.76Z"></path><path fill="#64cefd" d="M19.77,82a6.74,6.74,0,0,1,1.67,2.84,7.5,7.5,0,0,0-5.6-11.44,3.38,3.38,0,1,1-1.49,0,7.49,7.49,0,0,0-5.6,11.42A6.62,6.62,0,0,1,19.77,82Z"></path><path fill="#493c88" d="M15.84,73.43a3.13,3.13,0,0,0-1.49,0A7.42,7.42,0,0,1,15.84,73.43Z"></path><path fill="#493c88" d="M11.72,76.72a3.38,3.38,0,1,0,4.12-3.29,7.42,7.42,0,0,0-1.49,0A3.37,3.37,0,0,0,11.72,76.72Z"></path><path fill="#352d5b" d="M21.44 84.87a7.5 7.5 0 01-12.69 0c-.37 1.3-.26 2.06-.26 5.35a11.4 11.4 0 0013.21 0C21.7 86.6 21.78 86.06 21.44 84.87zM9.64 83a7.6 7.6 0 00-.46.78A7.6 7.6 0 019.64 83zM12 80.89a6.26 6.26 0 00-.74.48A7.84 7.84 0 0112 80.89zM20.68 83.18c-.08-.13-.17-.25-.25-.37C20.51 82.93 20.6 83.05 20.68 83.18zM12.8 80.52a6.51 6.51 0 00-.72.31A6.51 6.51 0 0112.8 80.52zM13.88 80.21a7.38 7.38 0 00-.84.22A7.38 7.38 0 0113.88 80.21zM20.25 82.57c-.12-.15-.25-.29-.38-.43C20 82.28 20.13 82.42 20.25 82.57zM10.24 82.23a6.54 6.54 0 00-.53.65A6.54 6.54 0 0110.24 82.23zM10.37 82.1a6.07 6.07 0 01.65-.59A6.07 6.07 0 0010.37 82.1zM21.09 83.93c-.08-.17-.16-.33-.25-.49C20.93 83.6 21 83.76 21.09 83.93zM21.43 84.84a6.49 6.49 0 00-.26-.74A6.49 6.49 0 0121.43 84.84zM15 80.1a6.11 6.11 0 00-.86.08A6.11 6.11 0 0115 80.1zM9.09 84a7.83 7.83 0 00-.32.85A7.83 7.83 0 019.09 84z"></path><path fill="#493c88" d="M21.44 84.87h0v0zM20.84 83.44l-.16-.26zM21.17 84.1c0-.06-.06-.11-.08-.17S21.15 84 21.17 84.1zM20.43 82.81l-.18-.24zM10.24 82.23l.13-.13zM15 80.1a6.56 6.56 0 014.87 2A6.53 6.53 0 0015 80.1zM9.18 83.76L9.09 84zM9.71 82.88a.86.86 0 00-.07.1A.86.86 0 019.71 82.88zM8.75 84.85h0s0 0 0-.06zM13 80.43l-.24.09zM11.21 81.37l-.19.14zM14.14 80.18l-.26 0zM12.08 80.83l-.13.06z"></path><path fill="#493c88" d="M21.44,84.87c-1.83-6.38-10.85-6.28-12.69,0A7.5,7.5,0,0,0,21.44,84.87Z"></path><path fill="#46a6fd" d="M15.09,3.68a11.44,11.44,0,0,0-6.6,20.77c0-3.25-.1-4.11.26-5.35a7.5,7.5,0,0,1,5.6-11.44,3.4,3.4,0,0,1,1.49,0,7.51,7.51,0,0,1,5.6,11.45c.37,1.29.26,2.07.26,5.34A11.44,11.44,0,0,0,15.09,3.68Z"></path><path fill="#64cefd" d="M19.77,16.26a6.87,6.87,0,0,1,1.67,2.84,7.5,7.5,0,0,0-5.6-11.44,3.38,3.38,0,1,1-1.49,0,7.5,7.5,0,0,0-5.6,11.43A6.62,6.62,0,0,1,19.77,16.26Z"></path><path fill="#493c88" d="M15.84 7.66a3.26 3.26 0 00-1.49 0A7.42 7.42 0 0115.84 7.66zM11.72 11a3.38 3.38 0 104.12-3.29 7.42 7.42 0 00-1.49 0A3.37 3.37 0 0011.72 11z"></path><path fill="#352d5b" d="M21.44 19.11a7.5 7.5 0 01-12.69 0c-.37 1.29-.26 2.06-.26 5.35a11.42 11.42 0 0013.21 0C21.7 20.84 21.78 20.29 21.44 19.11zM21.43 19.08a6.49 6.49 0 00-.26-.74A6.49 6.49 0 0121.43 19.08zM9.09 18.19a7.12 7.12 0 00-.32.85A7.12 7.12 0 019.09 18.19zM12.8 14.75a6.58 6.58 0 00-.72.32A6.58 6.58 0 0112.8 14.75zM13.88 14.45a7.37 7.37 0 00-.84.21A7.37 7.37 0 0113.88 14.45zM15 14.34a6.11 6.11 0 00-.86.07A6.11 6.11 0 0115 14.34zM10.24 16.47a5.56 5.56 0 00-.53.65A5.56 5.56 0 0110.24 16.47zM12 15.13a5.21 5.21 0 00-.74.48A5.21 5.21 0 0112 15.13zM9.64 17.21a7.75 7.75 0 00-.46.79A7.75 7.75 0 019.64 17.21zM21.09 18.16c-.08-.16-.16-.32-.25-.48C20.93 17.84 21 18 21.09 18.16zM20.68 17.41L20.43 17zM10.37 16.33a6 6 0 01.65-.58A6 6 0 0010.37 16.33zM20.25 16.8c-.12-.15-.25-.29-.38-.43C20 16.51 20.13 16.65 20.25 16.8z"></path><path fill="#493c88" d="M9.71 17.12l-.07.09zM8.75 19.09h0s0 0 0-.06A.08.08 0 008.75 19.09zM10.24 16.47l.13-.14zM15 14.34a6.56 6.56 0 014.87 2A6.5 6.5 0 0015 14.34zM9.18 18l-.09.19zM21.44 19.11h0v0zM20.43 17l-.18-.24zM20.84 17.68l-.16-.27zM21.17 18.34c0-.06-.06-.12-.08-.18S21.15 18.28 21.17 18.34zM11.21 15.61a1.33 1.33 0 00-.19.14A1.33 1.33 0 0111.21 15.61zM12.08 15.07l-.13.06zM13 14.66l-.24.09zM14.14 14.41l-.26 0z"></path><path fill="#493c88" d="M21.44,19.11c-1.81-6.37-10.85-6.3-12.69,0A7.5,7.5,0,0,0,21.44,19.11Z"></path></svg>