<svg xmlns="http://www.w3.org/2000/svg" viewBox="0 0 512 512" id="monitor"><polygon fill="#00acea" points="482.32 325.93 482.32 400.93 316 400.93 196 400.93 29.68 400.93 29.68 325.93 482.32 325.93"></polygon><path fill="#00efd1" d="M326.77,175.26H308.82l5.02,73.25h21.97a15.055,15.055,0,0,0,15.06-15.05q0-.42-.03-.84l-3.34-43.14a15.05,15.05,0,0,0-15.03-14.22Zm-141.54,0h-5.7a15.05,15.05,0,0,0-15.03,14.22l-3.34,43.14q-.03.42-.03.84a15.055,15.055,0,0,0,15.06,15.05h21.97l5.02-73.25ZM482.32,39.74V325.93H29.68V39.74Z"></path><path fill="#fedb41" d="M326.77,175.26h5.7a15.05,15.05,0,0,1,15.03,14.22l3.34,43.14q.03.42.03.84a15.055,15.055,0,0,1-15.06,15.05H313.84l-5.02-73.25Z"></path><polygon fill="#fedb41" points="316 400.93 336 472.26 176 472.26 196 400.93 316 400.93"></polygon><path fill="#fedb41" d="M185.23,175.26h17.95l-5.02,73.25H176.19a15.055,15.055,0,0,1-15.06-15.05q0-.42.03-.84l3.34-43.14a15.05,15.05,0,0,1,15.03-14.22Z"></path><path fill="#083863" d="M482.32,32H29.68A7.514,7.514,0,0,0,22,39.74V400.93A7.793,7.793,0,0,0,29.68,409H185.448l-15.513,55H142.47a8,8,0,0,0,0,16H369.53a8,8,0,0,0,0-16H342.065l-15.513-55H482.32a7.793,7.793,0,0,0,7.68-8.07V39.74A7.514,7.514,0,0,0,482.32,32ZM186.552,464l15.513-55h107.87l15.513,55ZM474,393H38V334H474Zm0-75H38V48H474Z"></path><path fill="#083863" d="M176.19,257h21.97a8.217,8.217,0,0,0,7.982-7.7l5.019-73.373a8.439,8.439,0,0,0-2.135-6.2A8.191,8.191,0,0,0,203.18,167H193V150.39a63,63,0,0,1,126,0V167H308.82a8.217,8.217,0,0,0-7.981,8.742l5.019,73.527A8.246,8.246,0,0,0,313.84,257H319v8.33A12.617,12.617,0,0,1,306.1,278H261.89a8,8,0,0,0,0,16H306.1A28.633,28.633,0,0,0,335,265.33V257h.81a23.292,23.292,0,0,0,23.06-23.295c0-.475-.016-1.2-.054-1.7L355.6,188.941A23.08,23.08,0,0,0,335,167.375V150.39a78.973,78.973,0,0,0-79.058-78.77C212.509,71.62,177,106.956,177,150.39v16.985a23.08,23.08,0,0,0-20.6,21.566l-3.278,43.094c-.035.475-.023,1.195-.023,1.67A23.317,23.317,0,0,0,176.19,257Zm163.322-67.209c0,.059.008.183.011.242l3.338,43.14c.006.085.009.431.009.516A7.291,7.291,0,0,1,335.81,241h-14.5l-3.923-58H332.47A7.167,7.167,0,0,1,339.512,189.791ZM169.137,233.36l3.34-43.2c0-.059.007-.278.011-.337A7.193,7.193,0,0,1,179.53,183h15.082l-3.923,58h-14.5a7.277,7.277,0,0,1-7.06-7.295C169.13,233.62,169.133,233.413,169.137,233.36Z"></path></svg>