<svg xmlns="http://www.w3.org/2000/svg" viewBox="0 0 168 168" id="dollar"><circle cx="2" cy="150.289" r="2" fill="#2d4356"></circle><path fill="#2d4356" d="M11 148.28868H8a2 2 0 0 0 0 4h3a2 2 0 0 0 0-4zM160 148.28868h-3a2 2 0 0 0 0 4h3a2 2 0 0 0 0-4z"></path><circle cx="166" cy="150.289" r="2" fill="#2d4356"></circle><path fill="#0bceb2" d="M118.15387 156.28868h-8.30774a2.00641 2.00641 0 0 0 0 4h8.30774a2.00641 2.00641 0 0 0 0-4zM58.15387 156.28868H49.84613a2.00641 2.00641 0 0 0 0 4h8.30774a2.00641 2.00641 0 0 0 0-4zM104 156.28868H64a2 2 0 0 0 0 4H79.94v2H72a2 2 0 0 0 0 4H97a2 2 0 0 0 0-4H88.06v-2H104a2 2 0 0 0 0-4zM84 35.28868a53 53 0 1 0 53 53A53 53 0 0 0 84 35.28868zm0 102a49 49 0 1 1 49-49A49.05551 49.05551 0 0 1 84 137.28868z"></path><path fill="#2d4356" d="M87.68469,79.11376c-3.79651-1.24792-8.52142-2.801-8.52142-4.36566,0-2.2312,4.01184-2.4046,5.24146-2.4046a12.80174,12.80174,0,0,1,8.57025,3.171l.05194.04932a9.0739,9.0739,0,0,0,6.2157,2.86072,8.34817,8.34817,0,0,0,8.37964-8.29718,8.65837,8.65837,0,0,0-1.48541-4.81592q-.0303-.04541-.06183-.09c-2.872-4.05664-7.72046-6.95642-13.86023-8.34576V55.53179a7.77015,7.77015,0,1,0-15.5401,0v1.24872C65.75427,59.34179,61.75684,67.48937,61.75684,74.7481c0,13.8797,11.7298,17.7547,20.29449,20.584,5.617,1.85571,9.29883,3.23145,9.29883,5.36157,0,1.29419,0,3.46021-6.94543,3.46021-3.73682,0-7.063-1.58582-10.468-4.99072a8.71262,8.71262,0,0,0-6.39606-2.95532,8.359,8.359,0,0,0-7.03485,12.77588c3.20313,5.18359,9.21674,9.16907,16.16882,10.8512v1.21057a7.77015,7.77015,0,1,0,15.5401,0v-1.106c10.43195-2.18774,16.54175-9.18823,16.54175-19.24585C108.75653,86.04021,96.07581,81.872,87.68469,79.11376Zm.53009,37.391v4.54077a3.77026,3.77026,0,1,1-7.5401,0v-4.54077c-7.86493-.97314-14.02588-5.18921-16.78162-9.64868a4.35915,4.35915,0,0,1,3.64764-6.64819,4.75293,4.75293,0,0,1,3.56769,1.78381c3.40527,3.40527,7.70251,6.16223,13.29633,6.16223,7.37775,0,10.94543-2.43335,10.94543-7.46021,0-11.83728-29.59332-6.40454-29.59332-25.94562,0-7.21533,4.53955-13.45874,14.91785-14.5943v-4.622a3.77026,3.77026,0,1,1,7.5401,0V60.235c6.48828.81073,11.83984,3.40527,14.59552,7.29773a4.68032,4.68032,0,0,1,.812,2.5946,4.344,4.344,0,0,1-4.37964,4.29718,5.37058,5.37058,0,0,1-3.48523-1.78381,16.74633,16.74633,0,0,0-11.35266-4.29724c-6.72809,0-9.24146,3.16168-9.24146,6.4046,0,10.62189,29.59326,5.67633,29.59326,25.94562C104.75653,109.6129,99.0802,115.45043,88.21478,116.50475Z"></path><path fill="#2d4356" d="M150.72131 148.28868H106.3009a64 64 0 1 0-44.60175 0H17.27869a2.017 2.017 0 1 0 0 4H150.72131a2.017 2.017 0 1 0 0-4zM24 88.28868a60 60 0 1 1 60 60A60.068 60.068 0 0 1 24 88.28868zM68.30471 8.28868a3 3 0 1 0-3-3A3.00344 3.00344 0 0 0 68.30471 8.28868zm0-4.5a1.5 1.5 0 1 1-1.5 1.5A1.50148 1.50148 0 0 1 68.30471 3.78868zM135.881 29.28868a2 2 0 1 0 2 2A2.00229 2.00229 0 0 0 135.881 29.28868zm0 3a1 1 0 1 1 1-1A1.001 1.001 0 0 1 135.881 32.28868zM135.881 1.71132a2 2 0 1 0 2 2A2.00229 2.00229 0 0 0 135.881 1.71132zm0 3a1 1 0 1 1 1-1A1.001 1.001 0 0 1 135.881 4.71132zM160 58.16207a2 2 0 1 0 2 2A2.00229 2.00229 0 0 0 160 58.16207zm0 3a1 1 0 1 1 1-1A1.001 1.001 0 0 1 160 61.16207zM31 30.28868a2 2 0 1 0-2 2A2.00229 2.00229 0 0 0 31 30.28868zm-3 0a1 1 0 1 1 1 1A1.001 1.001 0 0 1 28 30.28868z"></path><polygon fill="#0bceb2" points="10.888 69.3 12.375 67.344 11.436 66.813 10.481 69.003 10.45 69.003 9.48 66.828 8.525 67.376 9.996 69.285 9.996 69.316 7.695 69.018 7.695 70.082 10.011 69.785 10.011 69.817 8.525 71.725 9.416 72.289 10.434 70.082 10.465 70.082 11.404 72.273 12.39 71.71 10.888 69.832 10.888 69.801 13.25 70.082 13.25 69.018 10.888 69.331 10.888 69.3"></polygon><polygon fill="#0bceb2" points="5.734 6.942 4.878 8.041 5.392 8.365 5.978 7.095 5.996 7.095 6.536 8.356 7.104 8.032 6.239 6.951 6.239 6.933 7.599 7.095 7.599 6.482 6.239 6.662 6.239 6.644 7.095 5.518 6.555 5.212 6.005 6.473 5.987 6.473 5.429 5.221 4.878 5.536 5.726 6.636 5.726 6.654 4.401 6.482 4.401 7.095 5.734 6.924 5.734 6.942"></polygon><polygon fill="#0bceb2" points="164.724 17.31 164.724 16.267 162.407 16.573 162.407 16.543 163.866 14.625 162.945 14.103 162.009 16.251 161.977 16.251 161.027 14.118 160.089 14.655 161.533 16.528 161.533 16.558 159.276 16.267 159.276 17.31 161.548 17.019 161.548 17.05 160.089 18.921 160.964 19.474 161.963 17.31 161.992 17.31 162.913 19.459 163.881 18.906 162.407 17.065 162.407 17.034 164.724 17.31"></polygon><polygon fill="#0bceb2" points="106.758 16.231 108.016 14.576 107.222 14.126 106.414 15.979 106.387 15.979 105.567 14.139 104.759 14.603 106.004 16.218 106.004 16.244 104.057 15.993 104.057 16.893 106.017 16.641 106.017 16.668 104.759 18.283 105.513 18.76 106.374 16.893 106.4 16.893 107.195 18.746 108.029 18.27 106.758 16.681 106.758 16.654 108.757 16.893 108.757 15.993 106.758 16.257 106.758 16.231"></polygon></svg>