<svg xmlns="http://www.w3.org/2000/svg" xmlns:xlink="http://www.w3.org/1999/xlink" width="24" height="24" fill-rule="evenodd" stroke-linejoin="round" stroke-miterlimit="2" clip-rule="evenodd" id="logout"><defs><linearGradient id="b"><stop offset="0" stop-color="#ffd600"></stop><stop offset="1" stop-color="#ff0"></stop></linearGradient><linearGradient id="a"><stop offset="0" stop-color="#00b8d4"></stop><stop offset="1" stop-color="#18ffff"></stop></linearGradient><linearGradient id="c" x1="6.546" x2="14.001" y1="16.365" y2="3.727" gradientUnits="userSpaceOnUse" xlink:href="#a"></linearGradient><linearGradient id="d" x1="14.274" x2="16.183" y1="12.91" y2="6.546" gradientUnits="userSpaceOnUse" xlink:href="#b"></linearGradient></defs><path fill="url(#c)" d="M 15,4 C 15,3.7 14.866,3.417 14.634,3.227 14.402,3.037 14.098,2.961 13.804,3.019 l -10,2 C 3.336,5.113 3,5.523 3,6 v 12 c 0,0.477 0.336,0.887 0.804,0.981 l 10,2 c 0.294,0.058 0.598,-0.018 0.83,-0.208 C 14.866,20.583 15,20.3 15,20 Z"></path><path fill="#00acc1" d="M 15,14 V 12 H 8 c -0.552,0 -1,0.448 -1,1 0,0.552 0.448,1 1,1 z"></path><path fill="url(#d)" d="M 17.586,11 H 8 c -0.552,0 -1,0.448 -1,1 0,0.552 0.448,1 1,1 h 9.586 l -0.293,0.293 c -0.39,0.39 -0.39,1.024 0,1.414 0.39,0.39 1.024,0.39 1.414,0 l 2,-2 c 0.391,-0.39 0.391,-1.024 0,-1.414 l -2,-2 c -0.39,-0.39 -1.024,-0.39 -1.414,0 -0.39,0.39 -0.39,1.024 0,1.414 z"></path></svg>