<svg xmlns="http://www.w3.org/2000/svg" viewBox="0 0 32 32" id="money-withdrawal"><g><path fill="#ffde50" d="M27.52,12H3.355l17.7068-8.80682a1.87025,1.87025,0,0,1,2.49753.83877Z"></path><rect width="26" height="17.643" x="3" y="11.679" fill="#5fc77d" rx="1.857"></rect><rect width="20.429" height="12.071" x="5.786" y="14.464" fill="#a4e786" rx=".929"></rect><path fill="#5fc77d" d="M16.45455,24.13636H14.18182a.90909.90909,0,0,1,0-1.81818h2.27273a.45455.45455,0,0,0,0-.90909h-.9091a2.27273,2.27273,0,0,1,0-4.54545h2.27273a.90909.90909,0,0,1,0,1.81818H15.54545a.45455.45455,0,0,0,0,.90909h.9091a2.27273,2.27273,0,0,1,0,4.54545Z"></path><path fill="#5fc77d" d="M16 18.68182a.90885.90885 0 01-.90909-.90909V16.40909a.90909.90909 0 011.81818 0v1.36364A.90885.90885 0 0116 18.68182zM16 25.5a.90885.90885 0 01-.90909-.90909V23.22727a.90909.90909 0 011.81818 0v1.36364A.90885.90885 0 0116 25.5z"></path><circle cx="10" cy="20" r="1" fill="#5fc77d"></circle><circle cx="22" cy="20.5" r="1" fill="#5fc77d"></circle><path fill="#232323" d="M27,30H5a3.00328,3.00328,0,0,1-3-3V14a3.00328,3.00328,0,0,1,3-3H27a3.00328,3.00328,0,0,1,3,3V27A3.00328,3.00328,0,0,1,27,30ZM5,13a1.001,1.001,0,0,0-1,1V27a1.001,1.001,0,0,0,1,1H27a1.001,1.001,0,0,0,1-1V14a1.001,1.001,0,0,0-1-1Z"></path><path fill="#232323" d="M27.01074,13a.99891.99891,0,0,1-.91015-.584L22.84473,5.30273a1.00082,1.00082,0,0,0-1.35938-.47656L5.44922,12.89355a1.00012,1.00012,0,1,1-.89844-1.7871L20.58691,3.03906A3,3,0,0,1,24.66309,4.4707L27.919,11.584A1.00016,1.00016,0,0,1,27.01074,13Z"></path></g></svg>