<svg xmlns="http://www.w3.org/2000/svg" xmlns:xlink="http://www.w3.org/1999/xlink" viewBox="0 0 150 150" id="quick-share-amount"><defs><linearGradient id="a" x1="97.91" x2="101.68" y1="85.11" y2="85.11" gradientUnits="userSpaceOnUse"><stop offset="0" stop-color="#84a4a8"></stop><stop offset="1" stop-color="#3b6a82"></stop></linearGradient><linearGradient id="b" x1="94.22" x2="97.89" y1="70.68" y2="70.68" xlink:href="#a"></linearGradient><linearGradient id="c" x1="60.53" x2="133.99" y1="74.1" y2="74.1" xlink:href="#a"></linearGradient><linearGradient id="d" x1="26.12" x2="57.68" y1="50.8" y2="50.8" xlink:href="#a"></linearGradient><linearGradient id="e" x1="42.13" x2="76.66" y1="70.79" y2="70.79" xlink:href="#a"></linearGradient><linearGradient id="f" x1="16.16" x2="50.69" y1="91" y2="91" xlink:href="#a"></linearGradient></defs><circle cx="75" cy="75" r="71.79" fill="#d8e7a5"></circle><path fill="#fff" d="M97.76 90c2.12.12 3.35-.58 3.68-2.15l0-.09c.3-1.43-.26-2.5-2.43-3.86zM94.17 71.6l0 .09c-.29 1.39.14 2.39 2.35 3.76l1.24-5.93C95.55 69.34 94.46 70.21 94.17 71.6z"></path><path fill="#fff" d="M116.85,36.43,83.52,30.07A9,9,0,0,0,73,37.22L60.54,102.53a9,9,0,0,0,7.15,10.52l45.47,8.68a9,9,0,0,0,10.52-7.15l10.16-53.25Zm-9,52.26,0,.09c-1,4.88-5.41,7.24-11,6.66L96,99.76l-4.53-1,.91-4.4a22.31,22.31,0,0,1-9.42-6.28l4.43-4.26a17.65,17.65,0,0,0,6.37,5L95.15,82c-5.92-3-8.53-6-7.45-11.19l0-.09c1-4.8,5.32-7.22,10.93-6.64l.53-2.53,4.53.94-.55,2.66A18.39,18.39,0,0,1,110.6,70l-4,4.49a18.83,18.83,0,0,0-4.87-3.69l-1.38,6.62C106.63,80.56,108.91,83.81,107.89,88.69Zm7.3-29.1a4.45,4.45,0,0,1-3.59-5.29l3.15-15.21L131.07,62.4Z"></path><rect width="31.57" height="6.38" x="25.97" y="49.41" fill="#fff" rx="2.76"></rect><rect width="34.52" height="5.91" x="41.98" y="69.62" fill="#fff" rx="2.56"></rect><rect width="34.52" height="5.91" x="16.01" y="89.84" fill="#fff" rx="2.56"></rect><path fill="url(#a)" d="M97.91,88.16c2.11.12,3.35-.58,3.68-2.15l0-.09c.29-1.43-.26-2.5-2.43-3.87Z"></path><path fill="url(#b)" d="M94.32,69.81l0,.09c-.29,1.39.14,2.39,2.35,3.76l1.24-5.93C95.7,67.55,94.61,68.41,94.32,69.81Z"></path><path fill="url(#c)" d="M117,34.64,83.67,28.27a9,9,0,0,0-10.51,7.15L60.69,100.74a9,9,0,0,0,7.15,10.52l45.47,8.67a9,9,0,0,0,10.52-7.14L134,59.54ZM108,86.9l0,.09c-1,4.88-5.41,7.24-11,6.66L96.1,98l-4.53-1,.91-4.4a22.31,22.31,0,0,1-9.42-6.28l4.43-4.26a17.76,17.76,0,0,0,6.37,5l1.44-6.93c-5.92-3-8.53-6-7.45-11.2l0-.08c1-4.8,5.32-7.22,10.93-6.64l.53-2.53,4.53.94-.55,2.66a18.39,18.39,0,0,1,7.44,4.87l-4,4.49A18.83,18.83,0,0,0,101.9,69l-1.38,6.62C106.78,78.77,109.06,82,108,86.9Zm7.3-29.1a4.45,4.45,0,0,1-3.59-5.29L114.9,37.3l16.32,23.31Z"></path><rect width="31.57" height="6.38" x="26.12" y="47.62" fill="url(#d)" rx="2.76"></rect><rect width="34.52" height="5.91" x="42.13" y="67.83" fill="url(#e)" rx="2.56"></rect><rect width="34.52" height="5.91" x="16.16" y="88.05" fill="url(#f)" rx="2.56"></rect></svg>