<?xml version="1.0" encoding="UTF-8"?>
<!DOCTYPE svg PUBLIC "-//W3C//DTD SVG 1.1//EN" "http://www.w3.org/Graphics/SVG/1.1/DTD/svg11.dtd">
<!-- Creator: CorelDRAW -->
<svg xmlns="http://www.w3.org/2000/svg" xml:space="preserve" width="2.66666in" height="2.66666in" version="1.1" style="shape-rendering:geometricPrecision; text-rendering:geometricPrecision; image-rendering:optimizeQuality; fill-rule:evenodd; clip-rule:evenodd"
viewBox="0 0 2667 2667"
 xmlns:xlink="http://www.w3.org/1999/xlink">
 <defs>
  <style type="text/css">
   <![CDATA[
    .fil4 {fill:black}
    .fil2 {fill:#0A2751}
    .fil3 {fill:#1F3F77}
    .fil6 {fill:#279B61}
    .fil5 {fill:#49CE8B}
    .fil1 {fill:#929292}
    .fil0 {fill:#D6D6D6}
    .fil8 {fill:#EBEADF}
    .fil7 {fill:white}
   ]]>
  </style>
 </defs>
 <g id="_289455480">
  <rect class="fil0" width="2667" height="2667" rx="501" ry="501"/>
  <rect class="fil1" x="151" y="151" width="2365" height="2365" rx="444" ry="444"/>
 </g>
 <g id="Layer_x0020_1">
  <metadata id="CorelCorpID_0Corel-Layer"/>
  <path class="fil2" d="M2164 846l-127 0c-13,0 -23,-10 -23,-22l0 -164 -1362 0 0 164c0,12 -11,22 -23,22l-126 0c-13,0 -23,-10 -23,-22l0 -314c0,-12 10,-22 23,-22l1661 0c12,0 23,10 23,22l0 314c0,12 -11,22 -23,22z"/>
  <path class="fil3" d="M2037 1033l-269 0c-12,0 -22,-10 -22,-23l0 -164 -826 0 0 164c0,13 -10,23 -23,23l-268 0c-13,0 -23,-10 -23,-23l0 -373c0,-13 10,-23 23,-23l1408 0c13,0 23,10 23,23l0 373c0,13 -10,23 -23,23z"/>
  <path class="fil4" d="M1766 2158c0,12 -9,21 -20,21l-826 0c-11,0 -20,-9 -20,-21 0,-11 9,-20 20,-20l826 0c11,0 20,9 20,20z"/>
  <path class="fil5" d="M1785 829l0 1329c0,12 -9,21 -20,21l-864 0c-11,0 -21,-9 -21,-21l0 -1329c0,-11 10,-20 21,-20l864 0c11,0 20,9 20,20z"/>
  <path class="fil6" d="M1162 2179l-261 0c-11,0 -21,-9 -21,-21l0 -248c120,21 260,151 282,269z"/>
  <path class="fil6" d="M880 1106l0 -277c0,-11 10,-20 21,-20l248 0c-30,122 -155,275 -269,297z"/>
  <path class="fil6" d="M1785 829l0 246c-115,-25 -245,-152 -268,-266l248 0c11,0 20,9 20,20z"/>
  <path class="fil6" d="M1785 1904l0 254c0,12 -9,21 -20,21l-264 0c28,-116 168,-249 284,-275z"/>
  <path class="fil7" d="M1354 973l0 155c0,12 -10,21 -21,21 -11,0 -21,-9 -21,-21l0 -155c0,-12 10,-21 21,-21 11,0 21,9 21,21z"/>
  <path class="fil7" d="M1354 1859l0 156c0,11 -10,21 -21,21 -11,0 -21,-10 -21,-21l0 -156c0,-11 10,-20 21,-20 11,0 21,9 21,20z"/>
  <path class="fil6" d="M1587 1494c0,140 -114,254 -254,254 -140,0 -254,-114 -254,-254 0,-140 114,-254 254,-254 140,0 254,114 254,254z"/>
  <path class="fil7" d="M1333 1342c11,0 21,10 21,21l0 14 27 0c12,0 21,9 21,20 0,12 -9,21 -21,21l-76 0 0 55 76 0c12,0 21,9 21,21l0 96c0,12 -9,21 -21,21l-27 0 0 14c0,11 -10,20 -21,20 -12,0 -21,-9 -21,-20l0 -14 -27 0c-12,0 -21,-9 -21,-21 0,-11 9,-20 21,-20l75 0 0 -55 -75 0c-12,0 -21,-10 -21,-21l0 -97c0,-11 9,-20 21,-20l27 0 0 -14c0,-11 9,-21 21,-21z"/>
  <path class="fil8" d="M1887 846l-1108 0c-13,0 -23,-10 -23,-22 0,-13 10,-23 23,-23l1108 0c13,0 23,10 23,23 0,12 -10,22 -23,22z"/>
 </g>
</svg>
